<svg id="warning--alt--filled" xmlns="http://www.w3.org/2000/svg" width="32" height="32" viewBox="0 0 32 32">
  <path id="Subtraction_3" data-name="Subtraction 3" d="M17607,6639h-26a.992.992,0,0,1-.857-.49,1,1,0,0,1-.018-.99l13-25.034a1.04,1.04,0,0,1,1.76,0l13,25.034a1,1,0,0,1-.018.99A1.012,1.012,0,0,1,17607,6639Zm-13-6a1.5,1.5,0,1,0,1.5,1.5A1.5,1.5,0,0,0,17594,6633Zm-1.121-12.992h0V6630h2.248v-9.991h-2.248Z" transform="translate(-17578 -6610)" fill="#fff"/>
  <rect id="_Transparent_Rectangle_" data-name="&lt;Transparent Rectangle&gt;" width="32" height="32" fill="none"/>
</svg>
