<svg id="icon_status_warning_filled_16" data-name="icon / status / warning / filled / 16" xmlns="http://www.w3.org/2000/svg" width="20" height="20" viewBox="0 0 20 20">
  <path id="Fill" d="M9,18A8.962,8.962,0,0,1,0,9,8.962,8.962,0,0,1,9,0a8.962,8.962,0,0,1,9,9,8.962,8.962,0,0,1-9,9Zm0-5a1,1,0,0,0,0,2,1,1,0,0,0,0-2ZM8.2,4v7H9.7V4Z" transform="translate(1 1)" fill="#f1c21b"/>
  <path id="Inner_Fill" data-name="Inner Fill" d="M1,11a.947.947,0,0,1-1-1A.947.947,0,0,1,1,9a.947.947,0,0,1,1,1A.947.947,0,0,1,1,11Zm.7-4H.2V0H1.7V7Z" transform="translate(9 5)"/>
</svg>
